<svg id="Layer_1" data-name="Layer 1" xmlns="http://www.w3.org/2000/svg" viewBox="0 0 1229.1 422.85"><defs><style>.cls-1,.cls-2{fill:#fff;}.cls-2{font-size:302.9px;font-family:AdobeGothicStd-Bold-KSCpc-EUC-H, Adobe Gothic Std;}</style></defs><path class="cls-1" d="M349.17,328.52q45.43-34.12,45.44-85.63a126.06,126.06,0,0,0-4.26-33.78h-.16c-47-2.28-97.66-4.62-142.66,13.27-13.49,5.37-30.37,14.59-36.45,30.2-7.52,19.29,6.42,42.7,17.39,56.7,13.41,17.12,31.6,27.64,46.84,42.44s27.92,34.45,32.22,56.6c9.63,49.55-21.47,86.72-61.87,100.24-20.75,6.95-42.9,9.61-64.34,12.44-22.84,3-45.78,4.88-68.75,6.15a16.11,16.11,0,0,1-3.86-.23l-9.15.44c-12.16,0-20.94,6.74-20.94,20.32H277.24q36.72,0,58.38-6.28t40.63-22.16Q415.07,486,415.07,430,415.07,357,349.17,328.52Z" transform="translate(-77.9 -139)"/><path class="cls-1" d="M88.87,163.6h23.76V490.19c25.83-1.44,51.65-3.55,77.29-7.35,21.6-3.19,46-5.85,65.06-18.49,14.94-9.9,24.28-26.43,20.62-46.21-3.91-21.13-18.46-36.66-33.54-48.81-17.14-13.8-33.19-27-45.79-46.25s-22.37-42.64-19.8-66.85c4.83-45.41,48.14-67.25,83.37-76.31s72.35-9.88,108.7-8.68Q335.79,139,261.89,139H112.63l-23.81.11c-6,0-10.92,5.5-10.92,12.24S82.81,163.6,88.87,163.6Z" transform="translate(-77.9 -139)"/><text class="cls-2" transform="translate(451.1 336.52) scale(0.94 1)">CDMS</text></svg>